<?xml version="1.0" standalone="no"?>
<!DOCTYPE svg PUBLIC "-//W3C//DTD SVG 20010904//EN"
 "http://www.w3.org/TR/2001/REC-SVG-20010904/DTD/svg10.dtd">
<svg version="1.0" xmlns="http://www.w3.org/2000/svg"
 width="1280.000000pt" height="1280.000000pt" viewBox="0 0 1280.000000 1280.000000"
 preserveAspectRatio="xMidYMid meet">
<g transform="translate(0.000000,1280.000000) scale(0.100000,-0.100000)"
fill="#000000" stroke="none">
<path d="M6032 12364 c-14 -9 -22 -26 -22 -43 0 -55 7 -56 329 -58 163 0 354
-6 425 -12 82 -6 136 -6 147 0 36 19 36 79 0 99 -31 16 -295 30 -581 30 -233
0 -279 -2 -298 -16z"/>
<path d="M5180 12279 c-392 -82 -746 -176 -767 -206 -18 -24 -16 -57 5 -76 25
-23 36 -22 170 17 167 49 300 82 512 126 188 39 210 49 210 92 0 25 -36 58
-62 57 -13 -1 -43 -5 -68 -10z"/>
<path d="M7656 12219 c-14 -11 -26 -29 -26 -40 0 -36 35 -56 136 -79 141 -32
352 -92 547 -156 160 -53 169 -55 193 -40 32 22 33 69 2 91 -50 35 -529 178
-799 239 -18 4 -35 -1 -53 -15z"/>
<path d="M3489 11707 c-186 -95 -311 -165 -471 -264 -92 -57 -110 -82 -89
-122 25 -46 51 -39 231 69 94 56 264 150 378 209 198 101 207 107 210 137 4
37 -19 64 -53 64 -12 0 -105 -42 -206 -93z"/>
<path d="M9186 11664 c-21 -21 -20 -67 2 -86 9 -8 62 -39 117 -68 130 -69 351
-204 488 -297 60 -40 119 -73 133 -73 30 0 58 41 50 73 -12 48 -689 467 -754
467 -11 0 -28 -7 -36 -16z"/>
<path d="M5910 10973 c-453 -47 -906 -229 -1235 -494 -156 -126 -321 -307
-419 -461 -20 -32 -40 -58 -44 -58 -5 0 -48 14 -98 30 -123 42 -262 77 -390
97 -134 21 -476 24 -609 5 -401 -57 -789 -231 -1071 -480 -178 -157 -341 -382
-426 -590 -170 -418 -141 -874 83 -1268 206 -362 565 -648 1005 -802 l109 -38
5 -250 c3 -162 9 -248 15 -247 9 1 607 345 3184 1830 l553 319 22 69 c177 554
950 1086 1663 1144 208 17 386 -10 529 -79 188 -91 285 -239 286 -435 1 -114
-21 -204 -76 -321 -219 -463 -795 -871 -1413 -1001 -110 -23 -153 -27 -303
-27 -111 -1 -196 4 -232 12 l-57 13 -993 -572 c-546 -315 -1481 -853 -2078
-1197 -597 -343 -1088 -630 -1092 -636 -12 -18 -10 -2764 2 -2771 11 -7 3812
2176 3817 2192 2 5 -19 38 -47 73 -64 80 -65 105 -9 189 175 262 994 761 1485
906 95 28 249 43 273 26 12 -8 12 -12 2 -25 -8 -9 -18 -16 -23 -16 -5 0 -73
-31 -151 -68 -416 -200 -1051 -585 -1214 -737 l-65 -60 46 -58 c27 -33 55 -57
66 -57 126 0 1007 473 1390 747 57 41 115 79 128 84 36 14 156 11 177 -5 24
-17 16 -69 -21 -131 -23 -40 -37 -51 -98 -77 -288 -126 -885 -466 -1178 -671
-111 -78 -218 -168 -218 -185 0 -17 93 -112 110 -112 136 0 1146 551 1454 793
65 51 218 56 257 8 21 -26 15 -57 -25 -122 -30 -49 -36 -53 -176 -118 -487
-224 -1310 -738 -1310 -818 0 -20 80 -113 97 -113 35 0 182 58 338 134 356
172 831 451 1116 655 73 52 90 24 40 -65 -82 -142 -374 -370 -759 -591 -401
-231 -762 -373 -945 -373 l-72 0 -60 64 -60 64 -1955 -1124 c-1075 -619 -1959
-1129 -1964 -1134 -17 -17 267 -127 500 -194 468 -133 991 -216 1684 -267 230
-17 1075 -23 1341 -10 1040 51 1892 216 2404 465 224 109 349 209 413 331 l27
50 5 2130 5 2129 25 13 c14 7 76 32 139 57 428 169 805 523 1024 961 398 798
258 1767 -348 2403 -459 482 -1110 695 -1752 571 -275 -53 -563 -181 -785
-350 -43 -33 -80 -59 -84 -59 -4 0 -50 41 -102 92 -350 334 -832 552 -1344
607 -90 10 -437 13 -518 4z"/>
<path d="M2225 10858 c-293 -261 -545 -520 -545 -562 0 -32 25 -56 57 -56 21
0 61 36 191 170 90 93 225 225 300 292 76 67 140 126 144 132 14 19 8 53 -10
69 -33 30 -63 20 -137 -45z"/>
<path d="M10517 10722 c-36 -40 -24 -60 134 -217 130 -128 223 -229 404 -437
48 -56 115 -46 115 17 0 40 -213 286 -452 523 -141 139 -166 153 -201 114z"/>
<path d="M1211 9703 c-32 -13 -258 -388 -377 -625 -69 -138 -74 -167 -33 -189
43 -23 66 -4 115 94 73 144 189 349 286 503 93 149 104 182 66 208 -23 17 -34
18 -57 9z"/>
<path d="M11552 9464 c-35 -24 -27 -58 42 -178 82 -144 192 -360 260 -511 62
-137 85 -161 130 -132 18 12 26 26 26 47 0 69 -330 720 -392 773 -25 21 -37
21 -66 1z"/>
<path d="M498 8229 c-32 -18 -140 -413 -194 -707 -24 -133 -24 -145 -10 -168
22 -32 70 -33 90 -1 8 12 24 76 36 142 25 145 88 407 135 567 19 65 35 122 35
128 0 16 -39 50 -57 50 -10 0 -26 -5 -35 -11z"/>
<path d="M12185 7957 l-27 -23 41 -178 c42 -179 93 -465 106 -586 4 -36 13
-75 21 -87 18 -29 64 -30 89 -3 16 18 17 27 5 117 -17 146 -57 371 -91 523
-48 211 -56 235 -85 249 -32 14 -28 15 -59 -12z"/>
<path d="M227 6612 c-30 -33 -20 -455 18 -772 10 -86 18 -117 31 -127 26 -19
58 -16 79 7 17 19 17 27 0 192 -10 95 -20 289 -24 431 -6 241 -7 260 -25 273
-27 19 -60 18 -79 -4z"/>
<path d="M12374 6525 c-20 -13 -22 -27 -28 -197 -8 -206 -18 -340 -42 -541
-16 -131 -16 -138 1 -157 21 -23 53 -26 78 -7 9 6 21 37 27 67 33 184 67 760
48 810 -16 42 -47 51 -84 25z"/>
<path d="M431 4991 c-6 -11 -11 -28 -11 -39 0 -62 234 -711 283 -783 26 -40
60 -48 89 -23 28 26 22 52 -56 239 -36 88 -95 252 -131 365 -83 258 -81 254
-127 258 -28 2 -39 -1 -47 -17z"/>
<path d="M12141 4913 c-14 -12 -43 -82 -85 -208 -36 -104 -95 -262 -131 -350
-110 -263 -105 -248 -92 -276 14 -28 60 -37 84 -17 20 16 66 116 148 322 68
172 165 459 165 488 0 21 -34 58 -54 58 -8 0 -23 -8 -35 -17z"/>
<path d="M1091 3501 c-6 -11 -11 -28 -11 -39 0 -40 310 -480 458 -650 48 -55
59 -63 86 -60 33 3 57 36 49 67 -2 10 -32 51 -65 92 -109 132 -211 271 -324
439 -106 158 -112 165 -147 168 -27 2 -38 -1 -46 -17z"/>
<path d="M11462 3443 c-7 -3 -44 -51 -81 -106 -92 -138 -235 -328 -348 -465
-96 -117 -108 -145 -75 -175 30 -27 61 -20 99 21 130 140 467 596 487 658 13
41 -40 84 -82 67z"/>
<path d="M2152 2264 c-14 -10 -22 -26 -22 -44 0 -23 15 -42 78 -100 106 -95
335 -278 476 -379 97 -68 122 -82 148 -79 36 3 59 36 51 69 -3 10 -42 44 -86
76 -130 90 -283 209 -405 312 -209 177 -201 172 -240 145z"/>
<path d="M10389 2202 c-15 -9 -78 -59 -140 -111 -140 -116 -270 -214 -416
-315 -62 -42 -115 -85 -118 -96 -12 -39 35 -87 72 -73 84 31 673 487 688 532
9 31 -2 56 -31 69 -30 15 -24 15 -55 -6z"/>
<path d="M3494 1335 c-15 -15 -23 -32 -20 -41 3 -9 6 -20 6 -26 0 -21 419
-209 677 -303 128 -46 133 -47 157 -31 31 20 35 65 9 88 -10 9 -76 37 -148 63
-150 55 -348 139 -519 219 -65 31 -123 56 -128 56 -5 0 -20 -11 -34 -25z"/>
<path d="M8876 1239 c-98 -44 -258 -109 -355 -145 -259 -95 -263 -97 -272
-120 -9 -27 9 -64 37 -75 30 -10 249 66 534 186 210 89 289 131 296 159 6 25
-10 66 -26 66 -4 0 -14 2 -22 5 -7 2 -94 -32 -192 -76z"/>
<path d="M5030 805 c-17 -20 -16 -63 1 -80 24 -23 295 -71 594 -105 269 -31
315 -26 315 34 0 42 -29 55 -146 66 -173 16 -415 49 -560 75 -155 29 -187 31
-204 10z"/>
<path d="M7405 790 c-147 -27 -399 -59 -572 -73 -122 -11 -156 -17 -173 -32
-26 -23 -26 -49 1 -76 20 -20 28 -21 123 -15 192 13 424 41 631 77 91 16 124
25 138 41 20 24 22 48 5 70 -20 25 -47 27 -153 8z"/>
</g>
</svg>
